<?xml version="1.0" encoding="UTF-8" standalone="no"?>
<!DOCTYPE svg PUBLIC "-//W3C//DTD SVG 1.1//EN"
 "http://www.w3.org/Graphics/SVG/1.1/DTD/svg11.dtd">
<!-- Generated by graphviz version 12.2.1 (0)
 -->
<!-- Title: Borg Hardware Architecture Pages: 1 -->
<svg width="1774pt" height="870pt"
 viewBox="0.00 0.00 1774.40 870.40" xmlns="http://www.w3.org/2000/svg" xmlns:xlink="http://www.w3.org/1999/xlink">
<g id="graph0" class="graph" transform="scale(1 1) rotate(0) translate(43.2 827.2)">
<title>Borg Hardware Architecture</title>
<polygon fill="#0d1117" stroke="none" points="-43.2,43.2 -43.2,-827.2 1731.2,-827.2 1731.2,43.2 -43.2,43.2"/>
<text text-anchor="middle" x="844" y="-767.65" font-family="Helvetica Neue,Helvetica,Arial,sans-serif" font-size="13.00" fill="#e2e8f0">Borg GPU — Hardware Component Interaction</text>
<text text-anchor="middle" x="844" y="-754.15" font-family="Helvetica Neue,Helvetica,Arial,sans-serif" font-size="13.00" fill="#e2e8f0">(auto&#45;generated by scripts/gen_hw_diagram.py)</text>
<g id="clust1" class="cluster">
<title>cluster_software</title>
<path fill="#161b22" stroke="#b45309" stroke-width="2" d="M920,-666C920,-666 1160,-666 1160,-666 1166,-666 1172,-672 1172,-678 1172,-678 1172,-729 1172,-729 1172,-735 1166,-741 1160,-741 1160,-741 920,-741 920,-741 914,-741 908,-735 908,-729 908,-729 908,-678 908,-678 908,-672 914,-666 920,-666"/>
<text text-anchor="middle" x="1040" y="-671.7" font-family="Helvetica Neue,Helvetica,Arial,sans-serif" font-size="14.00" fill="#fef3c7">Software Stack</text>
</g>
<g id="clust2" class="cluster">
<title>cluster_soc</title>
<path fill="#161b22" stroke="#1a1a2e" stroke-width="2" d="M450,-478C450,-478 782,-478 782,-478 788,-478 794,-484 794,-490 794,-490 794,-635 794,-635 794,-641 788,-647 782,-647 782,-647 450,-647 450,-647 444,-647 438,-641 438,-635 438,-635 438,-490 438,-490 438,-484 444,-478 450,-478"/>
<text text-anchor="middle" x="616" y="-483.7" font-family="Helvetica Neue,Helvetica,Arial,sans-serif" font-size="14.00" fill="#e2e8f0">SoC (Top Level)</text>
</g>
<g id="clust3" class="cluster">
<title>cluster_memory</title>
<path fill="#161b22" stroke="#1e3a5f" stroke-width="2" d="M1391,-384C1391,-384 1668,-384 1668,-384 1674,-384 1680,-390 1680,-396 1680,-396 1680,-541 1680,-541 1680,-547 1674,-553 1668,-553 1668,-553 1391,-553 1391,-553 1385,-553 1379,-547 1379,-541 1379,-541 1379,-396 1379,-396 1379,-390 1385,-384 1391,-384"/>
<text text-anchor="middle" x="1529.5" y="-389.7" font-family="Helvetica Neue,Helvetica,Arial,sans-serif" font-size="14.00" fill="#e2e8f0">Memory Subsystem</text>
</g>
<g id="clust4" class="cluster">
<title>cluster_borg</title>
<path fill="#161b22" stroke="#0f3460" stroke-width="2" d="M826,-102C826,-102 1359,-102 1359,-102 1365,-102 1371,-108 1371,-114 1371,-114 1371,-447 1371,-447 1371,-453 1365,-459 1359,-459 1359,-459 826,-459 826,-459 820,-459 814,-453 814,-447 814,-447 814,-114 814,-114 814,-108 820,-102 826,-102"/>
<text text-anchor="middle" x="1092.5" y="-107.7" font-family="Helvetica Neue,Helvetica,Arial,sans-serif" font-size="14.00" fill="#e2e8f0">Borg GPU</text>
</g>
<g id="clust5" class="cluster">
<title>cluster_tinyqv</title>
<path fill="#161b22" stroke="#533483" stroke-width="2" d="M20,-8C20,-8 506,-8 506,-8 512,-8 518,-14 518,-20 518,-20 518,-447 518,-447 518,-453 512,-459 506,-459 506,-459 20,-459 20,-459 14,-459 8,-453 8,-447 8,-447 8,-20 8,-20 8,-14 14,-8 20,-8"/>
<text text-anchor="middle" x="263" y="-13.7" font-family="Helvetica Neue,Helvetica,Arial,sans-serif" font-size="14.00" fill="#e2e8f0">TinyQV RISC&#45;V CPU</text>
</g>
<g id="clust6" class="cluster">
<title>cluster_hardfloat</title>
<path fill="#161b22" stroke="#833471" stroke-width="2" d="M550,-8C550,-8 794,-8 794,-8 800,-8 806,-14 806,-20 806,-20 806,-353 806,-353 806,-359 800,-365 794,-365 794,-365 550,-365 550,-365 544,-365 538,-359 538,-353 538,-353 538,-20 538,-20 538,-14 544,-8 550,-8"/>
<text text-anchor="middle" x="672" y="-13.7" font-family="Helvetica Neue,Helvetica,Arial,sans-serif" font-size="14.00" fill="#e2e8f0">Berkeley HardFloat FPU</text>
</g>
<g id="clust7" class="cluster">
<title>cluster_rdl</title>
<path fill="#161b22" stroke="#2d6a4f" stroke-width="2" d="M826,-572C826,-572 1236,-572 1236,-572 1242,-572 1248,-578 1248,-584 1248,-584 1248,-635 1248,-635 1248,-641 1242,-647 1236,-647 1236,-647 826,-647 826,-647 820,-647 814,-641 814,-635 814,-635 814,-584 814,-584 814,-578 820,-572 826,-572"/>
<text text-anchor="middle" x="1031" y="-577.7" font-family="Helvetica Neue,Helvetica,Arial,sans-serif" font-size="14.00" fill="#e2e8f0">Register Descriptions</text>
</g>
<!-- Borg Driver -->
<g id="node1" class="node">
<title>Borg Driver</title>
<polygon fill="#451a03" stroke="#d97706" stroke-width="3" points="1163.78,-733 1078.22,-733 1074.22,-729 1074.22,-697 1159.78,-697 1163.78,-701 1163.78,-733"/>
<polyline fill="none" stroke="#d97706" stroke-width="3" points="1159.78,-729 1074.22,-729"/>
<polyline fill="none" stroke="#d97706" stroke-width="3" points="1159.78,-729 1159.78,-697"/>
<polyline fill="none" stroke="#d97706" stroke-width="3" points="1159.78,-729 1163.78,-733"/>
<text text-anchor="middle" x="1119" y="-709.98" font-family="Helvetica Neue,Helvetica,Arial,sans-serif" font-size="12.00" fill="#fcd34d">Borg Driver</text>
</g>
<!-- borg -->
<g id="node33" class="node">
<title>borg</title>
<path fill="#064e3b" stroke="#10b981" d="M1134,-639C1134,-639 1104,-639 1104,-639 1098,-639 1092,-633 1092,-627 1092,-627 1092,-615 1092,-615 1092,-609 1098,-603 1104,-603 1104,-603 1134,-603 1134,-603 1140,-603 1146,-609 1146,-615 1146,-615 1146,-627 1146,-627 1146,-633 1140,-639 1134,-639"/>
<text text-anchor="middle" x="1119" y="-616.17" font-family="Helvetica Neue,Helvetica,Arial,sans-serif" font-size="11.00" fill="#6ee7b7">borg</text>
</g>
<!-- Borg Driver&#45;&gt;borg -->
<g id="edge6" class="edge">
<title>Borg Driver&#45;&gt;borg</title>
<path fill="none" stroke="#d97706" stroke-width="1.4" stroke-dasharray="5,2" d="M1119,-695.52C1119,-695.52 1119,-651.2 1119,-651.2"/>
<polygon fill="#d97706" stroke="#d97706" stroke-width="1.4" points="1119,-641.2 1123.5,-651.2 1119.2,-644.49 1119.2,-651.2 1119,-651.2 1118.8,-651.2 1118.8,-644.49 1114.5,-651.2 1119,-641.2"/>
</g>
<!-- psram -->
<g id="node35" class="node">
<title>psram</title>
<path fill="#064e3b" stroke="#10b981" d="M1228.4,-639C1228.4,-639 1193.6,-639 1193.6,-639 1187.6,-639 1181.6,-633 1181.6,-627 1181.6,-627 1181.6,-615 1181.6,-615 1181.6,-609 1187.6,-603 1193.6,-603 1193.6,-603 1228.4,-603 1228.4,-603 1234.4,-603 1240.4,-609 1240.4,-615 1240.4,-615 1240.4,-627 1240.4,-627 1240.4,-633 1234.4,-639 1228.4,-639"/>
<text text-anchor="middle" x="1211" y="-616.17" font-family="Helvetica Neue,Helvetica,Arial,sans-serif" font-size="11.00" fill="#6ee7b7">psram</text>
</g>
<!-- Borg Driver&#45;&gt;psram -->
<g id="edge7" class="edge">
<title>Borg Driver&#45;&gt;psram</title>
<path fill="none" stroke="#d97706" stroke-width="1.4" stroke-dasharray="5,2" d="M1154.89,-695.52C1154.89,-667.99 1154.89,-621 1154.89,-621 1154.89,-621 1169.59,-621 1169.59,-621"/>
<polygon fill="#d97706" stroke="#d97706" stroke-width="1.4" points="1179.59,-621 1169.59,-625.5 1176.3,-621.2 1169.59,-621.2 1169.59,-621 1169.59,-620.8 1176.3,-620.8 1169.59,-616.5 1179.59,-621"/>
</g>
<!-- TinyQV Firmware -->
<g id="node2" class="node">
<title>TinyQV Firmware</title>
<polygon fill="#451a03" stroke="#d97706" stroke-width="3" points="1037.9,-733 920.1,-733 916.1,-729 916.1,-697 1033.9,-697 1037.9,-701 1037.9,-733"/>
<polyline fill="none" stroke="#d97706" stroke-width="3" points="1033.9,-729 916.1,-729"/>
<polyline fill="none" stroke="#d97706" stroke-width="3" points="1033.9,-729 1033.9,-697"/>
<polyline fill="none" stroke="#d97706" stroke-width="3" points="1033.9,-729 1037.9,-733"/>
<text text-anchor="middle" x="977" y="-709.98" font-family="Helvetica Neue,Helvetica,Arial,sans-serif" font-size="12.00" fill="#fcd34d">TinyQV Firmware</text>
</g>
<!-- gpio -->
<g id="node34" class="node">
<title>gpio</title>
<path fill="#064e3b" stroke="#10b981" d="M954,-639C954,-639 924,-639 924,-639 918,-639 912,-633 912,-627 912,-627 912,-615 912,-615 912,-609 918,-603 924,-603 924,-603 954,-603 954,-603 960,-603 966,-609 966,-615 966,-615 966,-627 966,-627 966,-633 960,-639 954,-639"/>
<text text-anchor="middle" x="939" y="-616.17" font-family="Helvetica Neue,Helvetica,Arial,sans-serif" font-size="11.00" fill="#6ee7b7">gpio</text>
</g>
<!-- TinyQV Firmware&#45;&gt;gpio -->
<g id="edge28" class="edge">
<title>TinyQV Firmware&#45;&gt;gpio</title>
<path fill="none" stroke="#d97706" stroke-width="1.4" stroke-dasharray="5,2" d="M941.05,-695.52C941.05,-695.52 941.05,-651.2 941.05,-651.2"/>
<polygon fill="#d97706" stroke="#d97706" stroke-width="1.4" points="941.05,-641.2 945.55,-651.2 941.25,-644.49 941.25,-651.2 941.05,-651.2 940.85,-651.2 940.85,-644.49 936.55,-651.2 941.05,-641.2"/>
</g>
<!-- soc -->
<g id="node36" class="node">
<title>soc</title>
<path fill="#064e3b" stroke="#10b981" d="M1044,-639C1044,-639 1014,-639 1014,-639 1008,-639 1002,-633 1002,-627 1002,-627 1002,-615 1002,-615 1002,-609 1008,-603 1014,-603 1014,-603 1044,-603 1044,-603 1050,-603 1056,-609 1056,-615 1056,-615 1056,-627 1056,-627 1056,-633 1050,-639 1044,-639"/>
<text text-anchor="middle" x="1029" y="-616.17" font-family="Helvetica Neue,Helvetica,Arial,sans-serif" font-size="11.00" fill="#6ee7b7">soc</text>
</g>
<!-- TinyQV Firmware&#45;&gt;soc -->
<g id="edge29" class="edge">
<title>TinyQV Firmware&#45;&gt;soc</title>
<path fill="none" stroke="#d97706" stroke-width="1.4" stroke-dasharray="5,2" d="M1019.95,-695.52C1019.95,-695.52 1019.95,-651.2 1019.95,-651.2"/>
<polygon fill="#d97706" stroke="#d97706" stroke-width="1.4" points="1019.95,-641.2 1024.45,-651.2 1020.15,-644.49 1020.15,-651.2 1019.95,-651.2 1019.75,-651.2 1019.75,-644.49 1015.45,-651.2 1019.95,-641.2"/>
</g>
<!-- uart -->
<g id="node37" class="node">
<title>uart</title>
<path fill="#064e3b" stroke="#10b981" d="M864,-639C864,-639 834,-639 834,-639 828,-639 822,-633 822,-627 822,-627 822,-615 822,-615 822,-609 828,-603 834,-603 834,-603 864,-603 864,-603 870,-603 876,-609 876,-615 876,-615 876,-627 876,-627 876,-633 870,-639 864,-639"/>
<text text-anchor="middle" x="849" y="-616.17" font-family="Helvetica Neue,Helvetica,Arial,sans-serif" font-size="11.00" fill="#6ee7b7">uart</text>
</g>
<!-- TinyQV Firmware&#45;&gt;uart -->
<g id="edge30" class="edge">
<title>TinyQV Firmware&#45;&gt;uart</title>
<path fill="none" stroke="#d97706" stroke-width="1.4" stroke-dasharray="5,2" d="M914.87,-715C882.26,-715 849,-715 849,-715 849,-715 849,-650.83 849,-650.83"/>
<polygon fill="#d97706" stroke="#d97706" stroke-width="1.4" points="849,-640.83 853.5,-650.83 849.2,-644.12 849.2,-650.83 849,-650.83 848.8,-650.83 848.8,-644.12 844.5,-650.83 849,-640.83"/>
</g>
<!-- Peripherals -->
<g id="node3" class="node">
<title>Peripherals</title>
<path fill="#1e3a5f" stroke="#3b82f6" d="M754.4,-545C754.4,-545 695.6,-545 695.6,-545 689.6,-545 683.6,-539 683.6,-533 683.6,-533 683.6,-521 683.6,-521 683.6,-515 689.6,-509 695.6,-509 695.6,-509 754.4,-509 754.4,-509 760.4,-509 766.4,-515 766.4,-521 766.4,-521 766.4,-533 766.4,-533 766.4,-539 760.4,-545 754.4,-545"/>
<text text-anchor="middle" x="725" y="-522.17" font-family="Helvetica Neue,Helvetica,Arial,sans-serif" font-size="11.00" fill="#93c5fd">Peripherals</text>
</g>
<!-- Borg -->
<g id="node9" class="node">
<title>Borg</title>
<polygon fill="#1e3a5f" stroke="#10b981" stroke-width="3" points="876.15,-451 825.85,-451 821.85,-447 821.85,-415 872.15,-415 876.15,-419 876.15,-451"/>
<polyline fill="none" stroke="#10b981" stroke-width="3" points="872.15,-447 821.85,-447"/>
<polyline fill="none" stroke="#10b981" stroke-width="3" points="872.15,-447 872.15,-415"/>
<polyline fill="none" stroke="#10b981" stroke-width="3" points="872.15,-447 876.15,-451"/>
<text text-anchor="middle" x="849" y="-427.98" font-family="Helvetica Neue,Helvetica,Arial,sans-serif" font-size="12.00" fill="#6ee7b7">Borg</text>
</g>
<!-- Peripherals&#45;&gt;Borg -->
<g id="edge20" class="edge">
<title>Peripherals&#45;&gt;Borg</title>
<path fill="none" stroke="#3b82f6" stroke-width="1.8" d="M732.38,-508.66C732.38,-479.79 732.38,-427 732.38,-427 732.38,-427 808.28,-427 808.28,-427"/>
<polygon fill="#3b82f6" stroke="#3b82f6" stroke-width="1.8" points="818.28,-427 808.28,-431.5 815.47,-427.4 808.28,-427.4 808.28,-427 808.28,-426.6 815.47,-426.6 808.28,-422.5 818.28,-427"/>
</g>
<!-- PeriUart -->
<g id="node18" class="node">
<title>PeriUart</title>
<path fill="#2d1b69" stroke="#8b5cf6" d="M498.27,-451C498.27,-451 453.73,-451 453.73,-451 447.73,-451 441.73,-445 441.73,-439 441.73,-439 441.73,-427 441.73,-427 441.73,-421 447.73,-415 453.73,-415 453.73,-415 498.27,-415 498.27,-415 504.27,-415 510.27,-421 510.27,-427 510.27,-427 510.27,-439 510.27,-439 510.27,-445 504.27,-451 498.27,-451"/>
<text text-anchor="middle" x="476" y="-428.18" font-family="Helvetica Neue,Helvetica,Arial,sans-serif" font-size="11.00" fill="#c4b5fd">PeriUart</text>
</g>
<!-- Peripherals&#45;&gt;PeriUart -->
<g id="edge21" class="edge">
<title>Peripherals&#45;&gt;PeriUart</title>
<path fill="none" stroke="#3b82f6" stroke-width="1.8" d="M690.98,-508.77C690.98,-482.99 690.98,-439 690.98,-439 690.98,-439 522.73,-439 522.73,-439"/>
<polygon fill="#3b82f6" stroke="#3b82f6" stroke-width="1.8" points="512.73,-439 522.73,-434.5 515.54,-438.6 522.73,-438.6 522.73,-439 522.73,-439.4 515.54,-439.4 522.73,-443.5 512.73,-439"/>
</g>
<!-- tt_um_gonsolo_borg -->
<g id="node4" class="node">
<title>tt_um_gonsolo_borg</title>
<polygon fill="#1e3a5f" stroke="#3b82f6" stroke-width="3" points="785.52,-639 650.48,-639 646.48,-635 646.48,-603 781.52,-603 785.52,-607 785.52,-639"/>
<polyline fill="none" stroke="#3b82f6" stroke-width="3" points="781.52,-635 646.48,-635"/>
<polyline fill="none" stroke="#3b82f6" stroke-width="3" points="781.52,-635 781.52,-603"/>
<polyline fill="none" stroke="#3b82f6" stroke-width="3" points="781.52,-635 785.52,-639"/>
<text text-anchor="middle" x="716" y="-615.98" font-family="Helvetica Neue,Helvetica,Arial,sans-serif" font-size="12.00" fill="#93c5fd">tt_um_gonsolo_borg</text>
</g>
<!-- tt_um_gonsolo_borg&#45;&gt;Peripherals -->
<g id="edge46" class="edge">
<title>tt_um_gonsolo_borg&#45;&gt;Peripherals</title>
<path fill="none" stroke="#3b82f6" stroke-width="1.8" d="M704.3,-601.52C704.3,-601.52 704.3,-557.69 704.3,-557.69"/>
<polygon fill="#3b82f6" stroke="#3b82f6" stroke-width="1.8" points="704.3,-547.69 708.8,-557.69 704.7,-550.49 704.7,-557.69 704.3,-557.69 703.9,-557.69 703.9,-550.49 699.8,-557.69 704.3,-547.69"/>
</g>
<!-- MemoryController -->
<g id="node6" class="node">
<title>MemoryController</title>
<path fill="#1a3a4f" stroke="#0ea5e9" d="M1659.53,-545C1659.53,-545 1568.47,-545 1568.47,-545 1562.47,-545 1556.47,-539 1556.47,-533 1556.47,-533 1556.47,-521 1556.47,-521 1556.47,-515 1562.47,-509 1568.47,-509 1568.47,-509 1659.53,-509 1659.53,-509 1665.53,-509 1671.53,-515 1671.53,-521 1671.53,-521 1671.53,-533 1671.53,-533 1671.53,-539 1665.53,-545 1659.53,-545"/>
<text text-anchor="middle" x="1614" y="-522.17" font-family="Helvetica Neue,Helvetica,Arial,sans-serif" font-size="11.00" fill="#7dd3fc">MemoryController</text>
</g>
<!-- tt_um_gonsolo_borg&#45;&gt;MemoryController -->
<g id="edge44" class="edge">
<title>tt_um_gonsolo_borg&#45;&gt;MemoryController</title>
<path fill="none" stroke="#3b82f6" stroke-width="1.8" d="M779.15,-601.8C779.15,-598.44 779.15,-596 779.15,-596 779.15,-596 1614,-596 1614,-596 1614,-596 1614,-557.68 1614,-557.68"/>
<polygon fill="#3b82f6" stroke="#3b82f6" stroke-width="1.8" points="1614,-547.68 1618.5,-557.68 1614.4,-550.49 1614.4,-557.68 1614,-557.68 1613.6,-557.68 1613.6,-550.49 1609.5,-557.68 1614,-547.68"/>
</g>
<!-- MemoryControllerSim -->
<g id="node7" class="node">
<title>MemoryControllerSim</title>
<path fill="#1a3a4f" stroke="#0ea5e9" d="M1508.9,-545C1508.9,-545 1399.1,-545 1399.1,-545 1393.1,-545 1387.1,-539 1387.1,-533 1387.1,-533 1387.1,-521 1387.1,-521 1387.1,-515 1393.1,-509 1399.1,-509 1399.1,-509 1508.9,-509 1508.9,-509 1514.9,-509 1520.9,-515 1520.9,-521 1520.9,-521 1520.9,-533 1520.9,-533 1520.9,-539 1514.9,-545 1508.9,-545"/>
<text text-anchor="middle" x="1454" y="-522.17" font-family="Helvetica Neue,Helvetica,Arial,sans-serif" font-size="11.00" fill="#7dd3fc">MemoryControllerSim</text>
</g>
<!-- tt_um_gonsolo_borg&#45;&gt;MemoryControllerSim -->
<g id="edge45" class="edge">
<title>tt_um_gonsolo_borg&#45;&gt;MemoryControllerSim</title>
<path fill="none" stroke="#3b82f6" stroke-width="1.8" d="M772.77,-601.94C772.77,-591.63 772.77,-581 772.77,-581 772.77,-581 1476.3,-581 1476.3,-581 1476.3,-581 1476.3,-557.48 1476.3,-557.48"/>
<polygon fill="#3b82f6" stroke="#3b82f6" stroke-width="1.8" points="1476.3,-547.48 1480.8,-557.48 1476.7,-550.28 1476.7,-557.48 1476.3,-557.48 1475.9,-557.48 1475.9,-550.28 1471.8,-557.48 1476.3,-547.48"/>
</g>
<!-- TinyQV -->
<g id="node19" class="node">
<title>TinyQV</title>
<polygon fill="#2d1b69" stroke="#8b5cf6" stroke-width="3" points="405.65,-451 340.35,-451 336.35,-447 336.35,-415 401.65,-415 405.65,-419 405.65,-451"/>
<polyline fill="none" stroke="#8b5cf6" stroke-width="3" points="401.65,-447 336.35,-447"/>
<polyline fill="none" stroke="#8b5cf6" stroke-width="3" points="401.65,-447 401.65,-415"/>
<polyline fill="none" stroke="#8b5cf6" stroke-width="3" points="401.65,-447 405.65,-451"/>
<text text-anchor="middle" x="371" y="-427.98" font-family="Helvetica Neue,Helvetica,Arial,sans-serif" font-size="12.00" fill="#c4b5fd">TinyQV</text>
</g>
<!-- tt_um_gonsolo_borg&#45;&gt;TinyQV -->
<g id="edge47" class="edge">
<title>tt_um_gonsolo_borg&#45;&gt;TinyQV</title>
<path fill="none" stroke="#3b82f6" stroke-width="1.8" d="M665.04,-601.5C665.04,-586.04 665.04,-567 665.04,-567 665.04,-567 371,-567 371,-567 371,-567 371,-464.68 371,-464.68"/>
<polygon fill="#3b82f6" stroke="#3b82f6" stroke-width="1.8" points="371,-454.68 375.5,-464.68 371.4,-457.48 371.4,-464.68 371,-464.68 370.6,-464.68 370.6,-457.48 366.5,-464.68 371,-454.68"/>
</g>
<!-- tt_um_gonsolo_borg_sim -->
<g id="node5" class="node">
<title>tt_um_gonsolo_borg_sim</title>
<polygon fill="#1e3a5f" stroke="#3b82f6" stroke-width="3" points="610.27,-639 449.73,-639 445.73,-635 445.73,-603 606.27,-603 610.27,-607 610.27,-639"/>
<polyline fill="none" stroke="#3b82f6" stroke-width="3" points="606.27,-635 445.73,-635"/>
<polyline fill="none" stroke="#3b82f6" stroke-width="3" points="606.27,-635 606.27,-603"/>
<polyline fill="none" stroke="#3b82f6" stroke-width="3" points="606.27,-635 610.27,-639"/>
<text text-anchor="middle" x="528" y="-615.98" font-family="Helvetica Neue,Helvetica,Arial,sans-serif" font-size="12.00" fill="#93c5fd">tt_um_gonsolo_borg_sim</text>
</g>
<!-- tt_um_gonsolo_borg_sim&#45;&gt;Peripherals -->
<g id="edge50" class="edge">
<title>tt_um_gonsolo_borg_sim&#45;&gt;Peripherals</title>
<path fill="none" stroke="#3b82f6" stroke-width="1.8" d="M594.23,-601.52C594.23,-573.99 594.23,-527 594.23,-527 594.23,-527 671.07,-527 671.07,-527"/>
<polygon fill="#3b82f6" stroke="#3b82f6" stroke-width="1.8" points="681.07,-527 671.07,-531.5 678.26,-527.4 671.07,-527.4 671.07,-527 671.07,-526.6 678.26,-526.6 671.07,-522.5 681.07,-527"/>
</g>
<!-- tt_um_gonsolo_borg_sim&#45;&gt;MemoryController -->
<g id="edge48" class="edge">
<title>tt_um_gonsolo_borg_sim&#45;&gt;MemoryController</title>
<path fill="none" stroke="#3b82f6" stroke-width="1.8" d="M578.19,-601.65C578.19,-594.91 578.19,-589 578.19,-589 578.19,-589 1585.24,-589 1585.24,-589 1585.24,-589 1585.24,-557.46 1585.24,-557.46"/>
<polygon fill="#3b82f6" stroke="#3b82f6" stroke-width="1.8" points="1585.24,-547.46 1589.74,-557.46 1585.64,-550.27 1585.64,-557.46 1585.24,-557.46 1584.84,-557.46 1584.84,-550.27 1580.74,-557.46 1585.24,-547.46"/>
</g>
<!-- tt_um_gonsolo_borg_sim&#45;&gt;MemoryControllerSim -->
<g id="edge49" class="edge">
<title>tt_um_gonsolo_borg_sim&#45;&gt;MemoryControllerSim</title>
<path fill="none" stroke="#3b82f6" stroke-width="1.8" d="M562.14,-601.61C562.14,-588.67 562.14,-574 562.14,-574 562.14,-574 1431.7,-574 1431.7,-574 1431.7,-574 1431.7,-557.5 1431.7,-557.5"/>
<polygon fill="#3b82f6" stroke="#3b82f6" stroke-width="1.8" points="1431.7,-547.5 1436.2,-557.5 1432.1,-550.31 1432.1,-557.5 1431.7,-557.5 1431.3,-557.5 1431.3,-550.31 1427.2,-557.5 1431.7,-547.5"/>
</g>
<!-- tt_um_gonsolo_borg_sim&#45;&gt;TinyQV -->
<g id="edge51" class="edge">
<title>tt_um_gonsolo_borg_sim&#45;&gt;TinyQV</title>
<path fill="none" stroke="#3b82f6" stroke-width="1.8" d="M444.41,-621C399.67,-621 353.68,-621 353.68,-621 353.68,-621 353.68,-464.6 353.68,-464.6"/>
<polygon fill="#3b82f6" stroke="#3b82f6" stroke-width="1.8" points="353.68,-454.6 358.18,-464.6 354.08,-457.41 354.08,-464.6 353.68,-464.6 353.28,-464.6 353.28,-457.41 349.18,-464.6 353.68,-454.6"/>
</g>
<!-- QspiController -->
<g id="node8" class="node">
<title>QspiController</title>
<path fill="#1a3a4f" stroke="#0ea5e9" d="M1650.9,-451C1650.9,-451 1577.1,-451 1577.1,-451 1571.1,-451 1565.1,-445 1565.1,-439 1565.1,-439 1565.1,-427 1565.1,-427 1565.1,-421 1571.1,-415 1577.1,-415 1577.1,-415 1650.9,-415 1650.9,-415 1656.9,-415 1662.9,-421 1662.9,-427 1662.9,-427 1662.9,-439 1662.9,-439 1662.9,-445 1656.9,-451 1650.9,-451"/>
<text text-anchor="middle" x="1614" y="-428.18" font-family="Helvetica Neue,Helvetica,Arial,sans-serif" font-size="11.00" fill="#7dd3fc">QspiController</text>
</g>
<!-- MemoryController&#45;&gt;QspiController -->
<g id="edge12" class="edge">
<title>MemoryController&#45;&gt;QspiController</title>
<path fill="none" stroke="#3b82f6" stroke-width="1.8" d="M1614,-508.88C1614,-508.88 1614,-463.58 1614,-463.58"/>
<polygon fill="#3b82f6" stroke="#3b82f6" stroke-width="1.8" points="1614,-453.58 1618.5,-463.58 1614.4,-456.39 1614.4,-463.58 1614,-463.58 1613.6,-463.58 1613.6,-456.39 1609.5,-463.58 1614,-453.58"/>
</g>
<!-- BorgCommandFIFO -->
<g id="node10" class="node">
<title>BorgCommandFIFO</title>
<path fill="#1e3a5f" stroke="#10b981" d="M1350.53,-169C1350.53,-169 1247.47,-169 1247.47,-169 1241.47,-169 1235.47,-163 1235.47,-157 1235.47,-157 1235.47,-145 1235.47,-145 1235.47,-139 1241.47,-133 1247.47,-133 1247.47,-133 1350.53,-133 1350.53,-133 1356.53,-133 1362.53,-139 1362.53,-145 1362.53,-145 1362.53,-157 1362.53,-157 1362.53,-163 1356.53,-169 1350.53,-169"/>
<text text-anchor="middle" x="1299" y="-146.18" font-family="Helvetica Neue,Helvetica,Arial,sans-serif" font-size="11.00" fill="#6ee7b7">BorgCommandFIFO</text>
</g>
<!-- Borg&#45;&gt;BorgCommandFIFO -->
<g id="edge1" class="edge">
<title>Borg&#45;&gt;BorgCommandFIFO</title>
<path fill="none" stroke="#3b82f6" stroke-width="1.8" d="M877.51,-437C979.74,-437 1321.82,-437 1321.82,-437 1321.82,-437 1321.82,-181.52 1321.82,-181.52"/>
<polygon fill="#3b82f6" stroke="#3b82f6" stroke-width="1.8" points="1321.82,-171.52 1326.32,-181.52 1322.22,-174.33 1322.22,-181.52 1321.82,-181.52 1321.42,-181.52 1321.42,-174.33 1317.32,-181.52 1321.82,-171.52"/>
</g>
<!-- BorgCore -->
<g id="node11" class="node">
<title>BorgCore</title>
<path fill="#1e3a5f" stroke="#10b981" d="M975.02,-357C975.02,-357 922.98,-357 922.98,-357 916.98,-357 910.98,-351 910.98,-345 910.98,-345 910.98,-333 910.98,-333 910.98,-327 916.98,-321 922.98,-321 922.98,-321 975.02,-321 975.02,-321 981.02,-321 987.02,-327 987.02,-333 987.02,-333 987.02,-345 987.02,-345 987.02,-351 981.02,-357 975.02,-357"/>
<text text-anchor="middle" x="949" y="-334.18" font-family="Helvetica Neue,Helvetica,Arial,sans-serif" font-size="11.00" fill="#6ee7b7">BorgCore</text>
</g>
<!-- Borg&#45;&gt;BorgCore -->
<g id="edge2" class="edge">
<title>Borg&#45;&gt;BorgCore</title>
<path fill="none" stroke="#3b82f6" stroke-width="1.8" d="M860.92,-413.52C860.92,-385.99 860.92,-339 860.92,-339 860.92,-339 898.43,-339 898.43,-339"/>
<polygon fill="#3b82f6" stroke="#3b82f6" stroke-width="1.8" points="908.43,-339 898.43,-343.5 905.63,-339.4 898.43,-339.4 898.43,-339 898.43,-338.6 905.63,-338.6 898.43,-334.5 908.43,-339"/>
</g>
<!-- BorgGpuRegs -->
<g id="node12" class="node">
<title>BorgGpuRegs</title>
<path fill="#1e3a5f" stroke="#10b981" d="M915.52,-169C915.52,-169 842.48,-169 842.48,-169 836.48,-169 830.48,-163 830.48,-157 830.48,-157 830.48,-145 830.48,-145 830.48,-139 836.48,-133 842.48,-133 842.48,-133 915.52,-133 915.52,-133 921.52,-133 927.52,-139 927.52,-145 927.52,-145 927.52,-157 927.52,-157 927.52,-163 921.52,-169 915.52,-169"/>
<text text-anchor="middle" x="879" y="-146.18" font-family="Helvetica Neue,Helvetica,Arial,sans-serif" font-size="11.00" fill="#6ee7b7">BorgGpuRegs</text>
</g>
<!-- Borg&#45;&gt;BorgGpuRegs -->
<g id="edge3" class="edge">
<title>Borg&#45;&gt;BorgGpuRegs</title>
<path fill="none" stroke="#3b82f6" stroke-width="1.8" d="M845.7,-413.62C845.7,-413.62 845.7,-181.6 845.7,-181.6"/>
<polygon fill="#3b82f6" stroke="#3b82f6" stroke-width="1.8" points="845.7,-171.6 850.2,-181.6 846.1,-174.41 846.1,-181.6 845.7,-181.6 845.3,-181.6 845.3,-174.41 841.2,-181.6 845.7,-171.6"/>
</g>
<!-- BorgRasterizer -->
<g id="node13" class="node">
<title>BorgRasterizer</title>
<path fill="#1e3a5f" stroke="#10b981" d="M1052.4,-169C1052.4,-169 975.6,-169 975.6,-169 969.6,-169 963.6,-163 963.6,-157 963.6,-157 963.6,-145 963.6,-145 963.6,-139 969.6,-133 975.6,-133 975.6,-133 1052.4,-133 1052.4,-133 1058.4,-133 1064.4,-139 1064.4,-145 1064.4,-145 1064.4,-157 1064.4,-157 1064.4,-163 1058.4,-169 1052.4,-169"/>
<text text-anchor="middle" x="1014" y="-146.18" font-family="Helvetica Neue,Helvetica,Arial,sans-serif" font-size="11.00" fill="#6ee7b7">BorgRasterizer</text>
</g>
<!-- Borg&#45;&gt;BorgRasterizer -->
<g id="edge4" class="edge">
<title>Borg&#45;&gt;BorgRasterizer</title>
<path fill="none" stroke="#3b82f6" stroke-width="1.8" d="M877.4,-422C919.75,-422 994.51,-422 994.51,-422 994.51,-422 994.51,-181.4 994.51,-181.4"/>
<polygon fill="#3b82f6" stroke="#3b82f6" stroke-width="1.8" points="994.51,-171.4 999.01,-181.4 994.91,-174.2 994.91,-181.4 994.51,-181.4 994.11,-181.4 994.11,-174.2 990.01,-181.4 994.51,-171.4"/>
</g>
<!-- BorgTileBuffer -->
<g id="node14" class="node">
<title>BorgTileBuffer</title>
<path fill="#1e3a5f" stroke="#10b981" d="M1187.28,-169C1187.28,-169 1112.72,-169 1112.72,-169 1106.72,-169 1100.72,-163 1100.72,-157 1100.72,-157 1100.72,-145 1100.72,-145 1100.72,-139 1106.72,-133 1112.72,-133 1112.72,-133 1187.28,-133 1187.28,-133 1193.28,-133 1199.28,-139 1199.28,-145 1199.28,-145 1199.28,-157 1199.28,-157 1199.28,-163 1193.28,-169 1187.28,-169"/>
<text text-anchor="middle" x="1150" y="-146.18" font-family="Helvetica Neue,Helvetica,Arial,sans-serif" font-size="11.00" fill="#6ee7b7">BorgTileBuffer</text>
</g>
<!-- Borg&#45;&gt;BorgTileBuffer -->
<g id="edge5" class="edge">
<title>Borg&#45;&gt;BorgTileBuffer</title>
<path fill="none" stroke="#3b82f6" stroke-width="1.8" d="M877.62,-429C948.93,-429 1128.76,-429 1128.76,-429 1128.76,-429 1128.76,-181.43 1128.76,-181.43"/>
<polygon fill="#3b82f6" stroke="#3b82f6" stroke-width="1.8" points="1128.76,-171.43 1133.26,-181.43 1129.16,-174.24 1129.16,-181.43 1128.76,-181.43 1128.36,-181.43 1128.36,-174.24 1124.26,-181.43 1128.76,-171.43"/>
</g>
<!-- MulAddRecFN -->
<g id="node29" class="node">
<title>MulAddRecFN</title>
<path fill="#4a1841" stroke="#ec4899" d="M785.65,-357C785.65,-357 710.35,-357 710.35,-357 704.35,-357 698.35,-351 698.35,-345 698.35,-345 698.35,-333 698.35,-333 698.35,-327 704.35,-321 710.35,-321 710.35,-321 785.65,-321 785.65,-321 791.65,-321 797.65,-327 797.65,-333 797.65,-333 797.65,-345 797.65,-345 797.65,-351 791.65,-357 785.65,-357"/>
<text text-anchor="middle" x="748" y="-334.18" font-family="Helvetica Neue,Helvetica,Arial,sans-serif" font-size="11.00" fill="#f9a8d4">MulAddRecFN</text>
</g>
<!-- Borg&#45;&gt;MulAddRecFN -->
<!-- Fp16Rcp -->
<g id="node15" class="node">
<title>Fp16Rcp</title>
<path fill="#1e3a5f" stroke="#10b981" d="M972.52,-263C972.52,-263 923.48,-263 923.48,-263 917.48,-263 911.48,-257 911.48,-251 911.48,-251 911.48,-239 911.48,-239 911.48,-233 917.48,-227 923.48,-227 923.48,-227 972.52,-227 972.52,-227 978.52,-227 984.52,-233 984.52,-239 984.52,-239 984.52,-251 984.52,-251 984.52,-257 978.52,-263 972.52,-263"/>
<text text-anchor="middle" x="948" y="-240.18" font-family="Helvetica Neue,Helvetica,Arial,sans-serif" font-size="11.00" fill="#6ee7b7">Fp16Rcp</text>
</g>
<!-- BorgCore&#45;&gt;Fp16Rcp -->
<g id="edge8" class="edge">
<title>BorgCore&#45;&gt;Fp16Rcp</title>
<path fill="none" stroke="#3b82f6" stroke-width="1.8" d="M948,-320.88C948,-320.88 948,-275.58 948,-275.58"/>
<polygon fill="#3b82f6" stroke="#3b82f6" stroke-width="1.8" points="948,-265.58 952.5,-275.58 948.4,-268.39 948.4,-275.58 948,-275.58 947.6,-275.58 947.6,-268.39 943.5,-275.58 948,-265.58"/>
</g>
<!-- RegFileCopy -->
<g id="node16" class="node">
<title>RegFileCopy</title>
<path fill="#1e3a5f" stroke="#10b981" d="M1099.53,-263C1099.53,-263 1032.47,-263 1032.47,-263 1026.47,-263 1020.48,-257 1020.48,-251 1020.48,-251 1020.48,-239 1020.48,-239 1020.48,-233 1026.48,-227 1032.48,-227 1032.48,-227 1099.53,-227 1099.53,-227 1105.53,-227 1111.53,-233 1111.53,-239 1111.53,-239 1111.53,-251 1111.53,-251 1111.53,-257 1105.53,-263 1099.53,-263"/>
<text text-anchor="middle" x="1066" y="-240.18" font-family="Helvetica Neue,Helvetica,Arial,sans-serif" font-size="11.00" fill="#6ee7b7">RegFileCopy</text>
</g>
<!-- BorgCore&#45;&gt;RegFileCopy -->
<g id="edge10" class="edge">
<title>BorgCore&#45;&gt;RegFileCopy</title>
<path fill="none" stroke="#3b82f6" stroke-width="1.8" d="M987.43,-345C1013.84,-345 1044.16,-345 1044.16,-345 1044.16,-345 1044.16,-275.53 1044.16,-275.53"/>
<polygon fill="#3b82f6" stroke="#3b82f6" stroke-width="1.8" points="1044.16,-265.53 1048.66,-275.53 1044.56,-268.34 1044.56,-275.53 1044.16,-275.53 1043.76,-275.53 1043.76,-268.34 1039.66,-275.53 1044.16,-265.53"/>
</g>
<!-- BorgCore&#45;&gt;MulAddRecFN -->
<g id="edge9" class="edge">
<title>BorgCore&#45;&gt;MulAddRecFN</title>
<path fill="none" stroke="#3b82f6" stroke-width="1.8" d="M910.72,-330C910.72,-330 810.13,-330 810.13,-330"/>
<polygon fill="#3b82f6" stroke="#3b82f6" stroke-width="1.8" points="800.13,-330 810.13,-325.5 802.93,-329.6 810.13,-329.6 810.13,-330 810.13,-330.4 802.93,-330.4 810.13,-334.5 800.13,-330"/>
</g>
<!-- RegFileCopy&#45;&gt;BorgCommandFIFO -->
<g id="edge22" class="edge">
<title>RegFileCopy&#45;&gt;BorgCommandFIFO</title>
<path fill="none" stroke="#3b82f6" stroke-width="1.8" d="M1111.88,-245C1175.06,-245 1281.11,-245 1281.11,-245 1281.11,-245 1281.11,-181.32 1281.11,-181.32"/>
<polygon fill="#3b82f6" stroke="#3b82f6" stroke-width="1.8" points="1281.11,-171.32 1285.61,-181.32 1281.51,-174.12 1281.51,-181.32 1281.11,-181.32 1280.71,-181.32 1280.71,-174.12 1276.61,-181.32 1281.11,-171.32"/>
</g>
<!-- RegFileCopy&#45;&gt;BorgCore -->
<g id="edge23" class="edge">
<title>RegFileCopy&#45;&gt;BorgCore</title>
<path fill="none" stroke="#3b82f6" stroke-width="1.8" d="M1032.32,-263.23C1032.32,-289.01 1032.32,-333 1032.32,-333 1032.32,-333 999.44,-333 999.44,-333"/>
<polygon fill="#3b82f6" stroke="#3b82f6" stroke-width="1.8" points="989.44,-333 999.44,-328.5 992.24,-332.6 999.44,-332.6 999.44,-333 999.44,-333.4 992.24,-333.4 999.44,-337.5 989.44,-333"/>
</g>
<!-- RegFileCopy&#45;&gt;BorgGpuRegs -->
<g id="edge24" class="edge">
<title>RegFileCopy&#45;&gt;BorgGpuRegs</title>
<path fill="none" stroke="#3b82f6" stroke-width="1.8" d="M1035.12,-226.65C1035.12,-209.99 1035.12,-188 1035.12,-188 1035.12,-188 919.5,-188 919.5,-188 919.5,-188 919.5,-181.69 919.5,-181.69"/>
<polygon fill="#3b82f6" stroke="#3b82f6" stroke-width="1.8" points="919.5,-171.69 924,-181.69 919.9,-174.5 919.9,-181.69 919.5,-181.69 919.1,-181.69 919.1,-174.5 915,-181.69 919.5,-171.69"/>
</g>
<!-- RegFileCopy&#45;&gt;BorgRasterizer -->
<g id="edge25" class="edge">
<title>RegFileCopy&#45;&gt;BorgRasterizer</title>
<path fill="none" stroke="#3b82f6" stroke-width="1.8" d="M1049.76,-226.88C1049.76,-226.88 1049.76,-181.58 1049.76,-181.58"/>
<polygon fill="#3b82f6" stroke="#3b82f6" stroke-width="1.8" points="1049.76,-171.58 1054.26,-181.58 1050.16,-174.39 1050.16,-181.58 1049.76,-181.58 1049.36,-181.58 1049.36,-174.39 1045.26,-181.58 1049.76,-171.58"/>
</g>
<!-- RegFileCopy&#45;&gt;BorgTileBuffer -->
<g id="edge26" class="edge">
<title>RegFileCopy&#45;&gt;BorgTileBuffer</title>
<path fill="none" stroke="#3b82f6" stroke-width="1.8" d="M1106.12,-226.88C1106.12,-226.88 1106.12,-181.58 1106.12,-181.58"/>
<polygon fill="#3b82f6" stroke="#3b82f6" stroke-width="1.8" points="1106.13,-171.58 1110.63,-181.58 1106.53,-174.39 1106.53,-181.58 1106.13,-181.58 1105.73,-181.58 1105.73,-174.39 1101.63,-181.58 1106.13,-171.58"/>
</g>
<!-- CsrFile -->
<g id="node17" class="node">
<title>CsrFile</title>
<path fill="#2d1b69" stroke="#8b5cf6" d="M352.27,-169C352.27,-169 313.73,-169 313.73,-169 307.73,-169 301.73,-163 301.73,-157 301.73,-157 301.73,-145 301.73,-145 301.73,-139 307.73,-133 313.73,-133 313.73,-133 352.27,-133 352.27,-133 358.27,-133 364.27,-139 364.27,-145 364.27,-145 364.27,-157 364.27,-157 364.27,-163 358.27,-169 352.27,-169"/>
<text text-anchor="middle" x="333" y="-146.18" font-family="Helvetica Neue,Helvetica,Arial,sans-serif" font-size="11.00" fill="#c4b5fd">CsrFile</text>
</g>
<!-- TinyQVCounter -->
<g id="node22" class="node">
<title>TinyQVCounter</title>
<path fill="#2d1b69" stroke="#8b5cf6" d="M239.53,-75C239.53,-75 160.47,-75 160.47,-75 154.47,-75 148.47,-69 148.47,-63 148.47,-63 148.47,-51 148.47,-51 148.47,-45 154.47,-39 160.47,-39 160.47,-39 239.53,-39 239.53,-39 245.53,-39 251.53,-45 251.53,-51 251.53,-51 251.53,-63 251.53,-63 251.53,-69 245.53,-75 239.53,-75"/>
<text text-anchor="middle" x="200" y="-52.17" font-family="Helvetica Neue,Helvetica,Arial,sans-serif" font-size="11.00" fill="#c4b5fd">TinyQVCounter</text>
</g>
<!-- CsrFile&#45;&gt;TinyQVCounter -->
<g id="edge11" class="edge">
<title>CsrFile&#45;&gt;TinyQVCounter</title>
<path fill="none" stroke="#3b82f6" stroke-width="1.8" d="M333,-132.66C333,-103.79 333,-51 333,-51 333,-51 264,-51 264,-51"/>
<polygon fill="#3b82f6" stroke="#3b82f6" stroke-width="1.8" points="254,-51 264,-46.5 256.8,-50.6 264,-50.6 264,-51 264,-51.4 256.8,-51.4 264,-55.5 254,-51"/>
</g>
<!-- TinyQVCpu -->
<g id="node23" class="node">
<title>TinyQVCpu</title>
<path fill="#2d1b69" stroke="#8b5cf6" d="M248.15,-357C248.15,-357 187.85,-357 187.85,-357 181.85,-357 175.85,-351 175.85,-345 175.85,-345 175.85,-333 175.85,-333 175.85,-327 181.85,-321 187.85,-321 187.85,-321 248.15,-321 248.15,-321 254.15,-321 260.15,-327 260.15,-333 260.15,-333 260.15,-345 260.15,-345 260.15,-351 254.15,-357 248.15,-357"/>
<text text-anchor="middle" x="218" y="-334.18" font-family="Helvetica Neue,Helvetica,Arial,sans-serif" font-size="11.00" fill="#c4b5fd">TinyQVCpu</text>
</g>
<!-- TinyQV&#45;&gt;TinyQVCpu -->
<g id="edge27" class="edge">
<title>TinyQV&#45;&gt;TinyQVCpu</title>
<path fill="none" stroke="#3b82f6" stroke-width="1.8" d="M355.19,-413.52C355.19,-385.99 355.19,-339 355.19,-339 355.19,-339 272.47,-339 272.47,-339"/>
<polygon fill="#3b82f6" stroke="#3b82f6" stroke-width="1.8" points="262.47,-339 272.47,-334.5 265.28,-338.6 272.47,-338.6 272.47,-339 272.47,-339.4 265.28,-339.4 272.47,-343.5 262.47,-339"/>
</g>
<!-- TinyQVAlu -->
<g id="node20" class="node">
<title>TinyQVAlu</title>
<path fill="#2d1b69" stroke="#8b5cf6" d="M253.9,-169C253.9,-169 198.1,-169 198.1,-169 192.1,-169 186.1,-163 186.1,-157 186.1,-157 186.1,-145 186.1,-145 186.1,-139 192.1,-133 198.1,-133 198.1,-133 253.9,-133 253.9,-133 259.9,-133 265.9,-139 265.9,-145 265.9,-145 265.9,-157 265.9,-157 265.9,-163 259.9,-169 253.9,-169"/>
<text text-anchor="middle" x="226" y="-146.18" font-family="Helvetica Neue,Helvetica,Arial,sans-serif" font-size="11.00" fill="#c4b5fd">TinyQVAlu</text>
</g>
<!-- TinyQVCore -->
<g id="node21" class="node">
<title>TinyQVCore</title>
<path fill="#2d1b69" stroke="#8b5cf6" d="M362.02,-263C362.02,-263 297.98,-263 297.98,-263 291.98,-263 285.98,-257 285.98,-251 285.98,-251 285.98,-239 285.98,-239 285.98,-233 291.98,-227 297.98,-227 297.98,-227 362.02,-227 362.02,-227 368.02,-227 374.02,-233 374.02,-239 374.02,-239 374.02,-251 374.02,-251 374.02,-257 368.02,-263 362.02,-263"/>
<text text-anchor="middle" x="330" y="-240.18" font-family="Helvetica Neue,Helvetica,Arial,sans-serif" font-size="11.00" fill="#c4b5fd">TinyQVCore</text>
</g>
<!-- TinyQVCore&#45;&gt;CsrFile -->
<g id="edge31" class="edge">
<title>TinyQVCore&#45;&gt;CsrFile</title>
<path fill="none" stroke="#3b82f6" stroke-width="1.8" d="M333,-226.88C333,-226.88 333,-181.58 333,-181.58"/>
<polygon fill="#3b82f6" stroke="#3b82f6" stroke-width="1.8" points="333,-171.58 337.5,-181.58 333.4,-174.39 333.4,-181.58 333,-181.58 332.6,-181.58 332.6,-174.39 328.5,-181.58 333,-171.58"/>
</g>
<!-- TinyQVCore&#45;&gt;TinyQVAlu -->
<g id="edge32" class="edge">
<title>TinyQVCore&#45;&gt;TinyQVAlu</title>
<path fill="none" stroke="#3b82f6" stroke-width="1.8" d="M296.48,-226.88C296.48,-199.56 296.48,-151 296.48,-151 296.48,-151 278.37,-151 278.37,-151"/>
<polygon fill="#3b82f6" stroke="#3b82f6" stroke-width="1.8" points="268.37,-151 278.37,-146.5 271.18,-150.6 278.37,-150.6 278.37,-151 278.37,-151.4 271.18,-151.4 278.37,-155.5 268.37,-151"/>
</g>
<!-- TinyQVRegisters -->
<g id="node26" class="node">
<title>TinyQVRegisters</title>
<path fill="#2d1b69" stroke="#8b5cf6" d="M497.52,-169C497.52,-169 412.48,-169 412.48,-169 406.48,-169 400.48,-163 400.48,-157 400.48,-157 400.48,-145 400.48,-145 400.48,-139 406.48,-133 412.48,-133 412.48,-133 497.52,-133 497.52,-133 503.52,-133 509.52,-139 509.52,-145 509.52,-145 509.52,-157 509.52,-157 509.52,-163 503.52,-169 497.52,-169"/>
<text text-anchor="middle" x="455" y="-146.18" font-family="Helvetica Neue,Helvetica,Arial,sans-serif" font-size="11.00" fill="#c4b5fd">TinyQVRegisters</text>
</g>
<!-- TinyQVCore&#45;&gt;TinyQVRegisters -->
<g id="edge33" class="edge">
<title>TinyQVCore&#45;&gt;TinyQVRegisters</title>
<path fill="none" stroke="#3b82f6" stroke-width="1.8" d="M369.15,-226.88C369.15,-199.56 369.15,-151 369.15,-151 369.15,-151 387.95,-151 387.95,-151"/>
<polygon fill="#3b82f6" stroke="#3b82f6" stroke-width="1.8" points="397.95,-151 387.95,-155.5 395.14,-151.4 387.95,-151.4 387.95,-151 387.95,-150.6 395.14,-150.6 387.95,-146.5 397.95,-151"/>
</g>
<!-- TinyQVShifter -->
<g id="node27" class="node">
<title>TinyQVShifter</title>
<path fill="#2d1b69" stroke="#8b5cf6" d="M137.78,-169C137.78,-169 66.22,-169 66.22,-169 60.22,-169 54.23,-163 54.23,-157 54.23,-157 54.23,-145 54.23,-145 54.23,-139 60.23,-133 66.22,-133 66.22,-133 137.78,-133 137.78,-133 143.78,-133 149.78,-139 149.78,-145 149.78,-145 149.78,-157 149.78,-157 149.78,-163 143.78,-169 137.78,-169"/>
<text text-anchor="middle" x="102" y="-146.18" font-family="Helvetica Neue,Helvetica,Arial,sans-serif" font-size="11.00" fill="#c4b5fd">TinyQVShifter</text>
</g>
<!-- TinyQVCore&#45;&gt;TinyQVShifter -->
<g id="edge34" class="edge">
<title>TinyQVCore&#45;&gt;TinyQVShifter</title>
<path fill="none" stroke="#3b82f6" stroke-width="1.8" d="M291.23,-226.5C291.23,-217.25 291.23,-208 291.23,-208 291.23,-208 128.62,-208 128.62,-208 128.62,-208 128.62,-181.54 128.62,-181.54"/>
<polygon fill="#3b82f6" stroke="#3b82f6" stroke-width="1.8" points="128.63,-171.54 133.13,-181.54 129.03,-174.35 129.03,-181.54 128.63,-181.54 128.23,-181.54 128.23,-174.35 124.13,-181.54 128.63,-171.54"/>
</g>
<!-- TinyQVCpu&#45;&gt;TinyQVCore -->
<g id="edge35" class="edge">
<title>TinyQVCpu&#45;&gt;TinyQVCore</title>
<path fill="none" stroke="#3b82f6" stroke-width="1.8" d="M255.15,-320.88C255.15,-293.56 255.15,-245 255.15,-245 255.15,-245 273.4,-245 273.4,-245"/>
<polygon fill="#3b82f6" stroke="#3b82f6" stroke-width="1.8" points="283.4,-245 273.4,-249.5 280.59,-245.4 273.4,-245.4 273.4,-245 273.4,-244.6 280.59,-244.6 273.4,-240.5 283.4,-245"/>
</g>
<!-- TinyQVDecode -->
<g id="node25" class="node">
<title>TinyQVDecode</title>
<path fill="#2d1b69" stroke="#8b5cf6" d="M238.15,-263C238.15,-263 159.85,-263 159.85,-263 153.85,-263 147.85,-257 147.85,-251 147.85,-251 147.85,-239 147.85,-239 147.85,-233 153.85,-227 159.85,-227 159.85,-227 238.15,-227 238.15,-227 244.15,-227 250.15,-233 250.15,-239 250.15,-239 250.15,-251 250.15,-251 250.15,-257 244.15,-263 238.15,-263"/>
<text text-anchor="middle" x="199" y="-240.18" font-family="Helvetica Neue,Helvetica,Arial,sans-serif" font-size="11.00" fill="#c4b5fd">TinyQVDecode</text>
</g>
<!-- TinyQVCpu&#45;&gt;TinyQVDecode -->
<g id="edge36" class="edge">
<title>TinyQVCpu&#45;&gt;TinyQVDecode</title>
<path fill="none" stroke="#3b82f6" stroke-width="1.8" d="M213,-320.88C213,-320.88 213,-275.58 213,-275.58"/>
<polygon fill="#3b82f6" stroke="#3b82f6" stroke-width="1.8" points="213,-265.58 217.5,-275.58 213.4,-268.39 213.4,-275.58 213,-275.58 212.6,-275.58 212.6,-268.39 208.5,-275.58 213,-265.58"/>
</g>
<!-- TinyQVTime -->
<g id="node28" class="node">
<title>TinyQVTime</title>
<path fill="#2d1b69" stroke="#8b5cf6" d="M97.4,-263C97.4,-263 32.6,-263 32.6,-263 26.6,-263 20.6,-257 20.6,-251 20.6,-251 20.6,-239 20.6,-239 20.6,-233 26.6,-227 32.6,-227 32.6,-227 97.4,-227 97.4,-227 103.4,-227 109.4,-233 109.4,-239 109.4,-239 109.4,-251 109.4,-251 109.4,-257 103.4,-263 97.4,-263"/>
<text text-anchor="middle" x="65" y="-240.18" font-family="Helvetica Neue,Helvetica,Arial,sans-serif" font-size="11.00" fill="#c4b5fd">TinyQVTime</text>
</g>
<!-- TinyQVCpu&#45;&gt;TinyQVTime -->
<g id="edge37" class="edge">
<title>TinyQVCpu&#45;&gt;TinyQVTime</title>
<path fill="none" stroke="#3b82f6" stroke-width="1.8" d="M175.38,-339C130.11,-339 65,-339 65,-339 65,-339 65,-275.32 65,-275.32"/>
<polygon fill="#3b82f6" stroke="#3b82f6" stroke-width="1.8" points="65,-265.32 69.5,-275.32 65.4,-268.12 65.4,-275.32 65,-275.32 64.6,-275.32 64.6,-268.12 60.5,-275.32 65,-265.32"/>
</g>
<!-- TinyQVCpuWrapper -->
<g id="node24" class="node">
<title>TinyQVCpuWrapper</title>
<path fill="#2d1b69" stroke="#8b5cf6" d="M268.77,-451C268.77,-451 167.23,-451 167.23,-451 161.23,-451 155.23,-445 155.23,-439 155.23,-439 155.23,-427 155.23,-427 155.23,-421 161.23,-415 167.23,-415 167.23,-415 268.77,-415 268.77,-415 274.77,-415 280.77,-421 280.77,-427 280.77,-427 280.77,-439 280.77,-439 280.77,-445 274.77,-451 268.77,-451"/>
<text text-anchor="middle" x="218" y="-428.18" font-family="Helvetica Neue,Helvetica,Arial,sans-serif" font-size="11.00" fill="#c4b5fd">TinyQVCpuWrapper</text>
</g>
<!-- TinyQVCpuWrapper&#45;&gt;TinyQVCpu -->
<g id="edge38" class="edge">
<title>TinyQVCpuWrapper&#45;&gt;TinyQVCpu</title>
<path fill="none" stroke="#3b82f6" stroke-width="1.8" d="M218,-414.88C218,-414.88 218,-369.58 218,-369.58"/>
<polygon fill="#3b82f6" stroke="#3b82f6" stroke-width="1.8" points="218,-359.58 222.5,-369.58 218.4,-362.39 218.4,-369.58 218,-369.58 217.6,-369.58 217.6,-362.39 213.5,-369.58 218,-359.58"/>
</g>
<!-- TinyQVTime&#45;&gt;TinyQVCounter -->
<g id="edge39" class="edge">
<title>TinyQVTime&#45;&gt;TinyQVCounter</title>
<path fill="none" stroke="#3b82f6" stroke-width="1.8" d="M37.41,-226.63C37.41,-179.33 37.41,-57 37.41,-57 37.41,-57 135.92,-57 135.92,-57"/>
<polygon fill="#3b82f6" stroke="#3b82f6" stroke-width="1.8" points="145.92,-57 135.92,-61.5 143.11,-57.4 135.92,-57.4 135.92,-57 135.92,-56.6 143.11,-56.6 135.92,-52.5 145.92,-57"/>
</g>
<!-- MulAddRecFNToRaw_postMul -->
<g id="node30" class="node">
<title>MulAddRecFNToRaw_postMul</title>
<path fill="#4a1841" stroke="#ec4899" d="M709.9,-263C709.9,-263 558.1,-263 558.1,-263 552.1,-263 546.1,-257 546.1,-251 546.1,-251 546.1,-239 546.1,-239 546.1,-233 552.1,-227 558.1,-227 558.1,-227 709.9,-227 709.9,-227 715.9,-227 721.9,-233 721.9,-239 721.9,-239 721.9,-251 721.9,-251 721.9,-257 715.9,-263 709.9,-263"/>
<text text-anchor="middle" x="634" y="-240.18" font-family="Helvetica Neue,Helvetica,Arial,sans-serif" font-size="11.00" fill="#f9a8d4">MulAddRecFNToRaw_postMul</text>
</g>
<!-- MulAddRecFN&#45;&gt;MulAddRecFNToRaw_postMul -->
<g id="edge13" class="edge">
<title>MulAddRecFN&#45;&gt;MulAddRecFNToRaw_postMul</title>
<path fill="none" stroke="#3b82f6" stroke-width="1.8" d="M710.12,-320.88C710.12,-320.88 710.12,-275.58 710.12,-275.58"/>
<polygon fill="#3b82f6" stroke="#3b82f6" stroke-width="1.8" points="710.13,-265.58 714.63,-275.58 710.53,-268.39 710.53,-275.58 710.13,-275.58 709.73,-275.58 709.73,-268.39 705.63,-275.58 710.13,-265.58"/>
</g>
<!-- MulAddRecFNToRaw_preMul -->
<g id="node31" class="node">
<title>MulAddRecFNToRaw_preMul</title>
<path fill="#4a1841" stroke="#ec4899" d="M743.65,-169C743.65,-169 596.35,-169 596.35,-169 590.35,-169 584.35,-163 584.35,-157 584.35,-157 584.35,-145 584.35,-145 584.35,-139 590.35,-133 596.35,-133 596.35,-133 743.65,-133 743.65,-133 749.65,-133 755.65,-139 755.65,-145 755.65,-145 755.65,-157 755.65,-157 755.65,-163 749.65,-169 743.65,-169"/>
<text text-anchor="middle" x="670" y="-146.18" font-family="Helvetica Neue,Helvetica,Arial,sans-serif" font-size="11.00" fill="#f9a8d4">MulAddRecFNToRaw_preMul</text>
</g>
<!-- MulAddRecFN&#45;&gt;MulAddRecFNToRaw_preMul -->
<g id="edge14" class="edge">
<title>MulAddRecFN&#45;&gt;MulAddRecFNToRaw_preMul</title>
<path fill="none" stroke="#3b82f6" stroke-width="1.8" d="M738.77,-320.63C738.77,-320.63 738.77,-181.64 738.77,-181.64"/>
<polygon fill="#3b82f6" stroke="#3b82f6" stroke-width="1.8" points="738.78,-171.64 743.28,-181.64 739.18,-174.44 739.18,-181.64 738.78,-181.64 738.38,-181.64 738.38,-174.44 734.28,-181.64 738.78,-171.64"/>
</g>
<!-- RoundRawFNToRecFN -->
<g id="node32" class="node">
<title>RoundRawFNToRecFN</title>
<path fill="#4a1841" stroke="#ec4899" d="M729.02,-75C729.02,-75 610.98,-75 610.98,-75 604.98,-75 598.98,-69 598.98,-63 598.98,-63 598.98,-51 598.98,-51 598.98,-45 604.98,-39 610.98,-39 610.98,-39 729.02,-39 729.02,-39 735.02,-39 741.02,-45 741.02,-51 741.02,-51 741.02,-63 741.02,-63 741.02,-69 735.02,-75 729.02,-75"/>
<text text-anchor="middle" x="670" y="-52.17" font-family="Helvetica Neue,Helvetica,Arial,sans-serif" font-size="11.00" fill="#f9a8d4">RoundRawFNToRecFN</text>
</g>
<!-- MulAddRecFN&#45;&gt;RoundRawFNToRecFN -->
<g id="edge15" class="edge">
<title>MulAddRecFN&#45;&gt;RoundRawFNToRecFN</title>
<path fill="none" stroke="#3b82f6" stroke-width="1.8" d="M776.65,-320.93C776.65,-258.69 776.65,-57 776.65,-57 776.65,-57 753.63,-57 753.63,-57"/>
<polygon fill="#3b82f6" stroke="#3b82f6" stroke-width="1.8" points="743.63,-57 753.63,-52.5 746.43,-56.6 753.63,-56.6 753.63,-57 753.63,-57.4 746.43,-57.4 753.63,-61.5 743.63,-57"/>
</g>
<!-- MulAddRecFNToRaw_postMul&#45;&gt;MulAddRecFNToRaw_preMul -->
<g id="edge16" class="edge">
<title>MulAddRecFNToRaw_postMul&#45;&gt;MulAddRecFNToRaw_preMul</title>
<path fill="none" stroke="#3b82f6" stroke-width="1.8" d="M630.2,-226.88C630.2,-226.88 630.2,-181.58 630.2,-181.58"/>
<polygon fill="#3b82f6" stroke="#3b82f6" stroke-width="1.8" points="630.2,-171.58 634.7,-181.58 630.6,-174.39 630.6,-181.58 630.2,-181.58 629.8,-181.58 629.8,-174.39 625.7,-181.58 630.2,-171.58"/>
</g>
<!-- MulAddRecFNToRaw_postMul&#45;&gt;RoundRawFNToRecFN -->
<g id="edge17" class="edge">
<title>MulAddRecFNToRaw_postMul&#45;&gt;RoundRawFNToRecFN</title>
<path fill="none" stroke="#3b82f6" stroke-width="1.8" d="M565.23,-226.55C565.23,-180.28 565.23,-63 565.23,-63 565.23,-63 586.47,-63 586.47,-63"/>
<polygon fill="#3b82f6" stroke="#3b82f6" stroke-width="1.8" points="596.47,-63 586.47,-67.5 593.66,-63.4 586.47,-63.4 586.47,-63 586.47,-62.6 593.66,-62.6 586.47,-58.5 596.47,-63"/>
</g>
<!-- MulAddRecFNToRaw_preMul&#45;&gt;MulAddRecFNToRaw_postMul -->
<g id="edge18" class="edge">
<title>MulAddRecFNToRaw_preMul&#45;&gt;MulAddRecFNToRaw_postMul</title>
<path fill="none" stroke="#3b82f6" stroke-width="1.8" d="M676.05,-169.12C676.05,-169.12 676.05,-214.42 676.05,-214.42"/>
<polygon fill="#3b82f6" stroke="#3b82f6" stroke-width="1.8" points="676.05,-224.42 671.55,-214.42 675.65,-221.61 675.65,-214.42 676.05,-214.42 676.45,-214.42 676.45,-221.61 680.55,-214.42 676.05,-224.42"/>
</g>
<!-- MulAddRecFNToRaw_preMul&#45;&gt;RoundRawFNToRecFN -->
<g id="edge19" class="edge">
<title>MulAddRecFNToRaw_preMul&#45;&gt;RoundRawFNToRecFN</title>
<path fill="none" stroke="#3b82f6" stroke-width="1.8" d="M670,-132.88C670,-132.88 670,-87.58 670,-87.58"/>
<polygon fill="#3b82f6" stroke="#3b82f6" stroke-width="1.8" points="670,-77.58 674.5,-87.58 670.4,-80.39 670.4,-87.58 670,-87.58 669.6,-87.58 669.6,-80.39 665.5,-87.58 670,-77.58"/>
</g>
<!-- borg&#45;&gt;Borg -->
<g id="edge40" class="edge">
<title>borg&#45;&gt;Borg</title>
<path fill="none" stroke="#10b981" stroke-width="1.4" stroke-dasharray="5,2" d="M1101.76,-602.72C1101.76,-557.5 1101.76,-444 1101.76,-444 1101.76,-444 890.98,-444 890.98,-444"/>
<polygon fill="#10b981" stroke="#10b981" stroke-width="1.4" points="890.77,-444 884.77,-448 878.77,-444 884.77,-440 890.77,-444"/>
</g>
<!-- gpio&#45;&gt;Peripherals -->
<g id="edge41" class="edge">
<title>gpio&#45;&gt;Peripherals</title>
<path fill="none" stroke="#10b981" stroke-width="1.4" stroke-dasharray="5,2" d="M939,-602.7C939,-584.73 939,-560 939,-560 939,-560 725,-560 725,-560 725,-560 725,-558.54 725,-558.54"/>
<polygon fill="#10b981" stroke="#10b981" stroke-width="1.4" points="725,-558.69 721,-552.69 725,-546.69 729,-552.69 725,-558.69"/>
</g>
<!-- psram&#45;&gt;MemoryController -->
<g id="edge42" class="edge">
<title>psram&#45;&gt;MemoryController</title>
<path fill="none" stroke="#10b981" stroke-width="1.4" stroke-dasharray="5,2" d="M1240.68,-621C1338.22,-621 1642.76,-621 1642.76,-621 1642.76,-621 1642.76,-558.6 1642.76,-558.6"/>
<polygon fill="#10b981" stroke="#10b981" stroke-width="1.4" points="1642.76,-558.39 1638.76,-552.39 1642.76,-546.39 1646.76,-552.39 1642.76,-558.39"/>
</g>
<!-- soc&#45;&gt;Peripherals -->
<g id="edge43" class="edge">
<title>soc&#45;&gt;Peripherals</title>
<path fill="none" stroke="#10b981" stroke-width="1.4" stroke-dasharray="5,2" d="M1011.24,-602.51C1011.24,-582.07 1011.24,-552 1011.24,-552 1011.24,-552 745.7,-552 745.7,-552 745.7,-552 745.7,-551.34 745.7,-551.34"/>
<polygon fill="#10b981" stroke="#10b981" stroke-width="1.4" points="745.7,-558.69 741.7,-552.69 745.7,-546.69 749.7,-552.69 745.7,-558.69"/>
</g>
<!-- uart&#45;&gt;Peripherals -->
<g id="edge52" class="edge">
<title>uart&#45;&gt;Peripherals</title>
<path fill="none" stroke="#10b981" stroke-width="1.4" stroke-dasharray="5,2" d="M821.64,-621C806.85,-621 791.59,-621 791.59,-621 791.59,-621 791.59,-527 791.59,-527 791.59,-527 780.27,-527 780.27,-527"/>
<polygon fill="#10b981" stroke="#10b981" stroke-width="1.4" points="780.05,-527 774.05,-531 768.05,-527 774.05,-523 780.05,-527"/>
</g>
<!-- Project -->
<g id="node38" class="node">
<title>Project</title>
<ellipse fill="none" stroke="black" cx="849" cy="-527" rx="47" ry="18"/>
<text text-anchor="middle" x="849" y="-522.33" font-family="Times,serif" font-size="14.00">Project</text>
</g>
<!-- Project&#45;&gt;Borg -->
<!-- Project&#45;&gt;TinyQV -->
</g>
</svg>
